<svg width="55" height="45" viewBox="0 0 55 45" fill="none" xmlns="http://www.w3.org/2000/svg">
<rect x="1" width="54" height="44.0728" rx="20" fill="black"/>
<path d="M25 32V10L29 15.5L32.5 9V32" stroke="#D458FF"/>
<path d="M45 6L39 13.5L45 20.5L38 29L45 32" stroke="#D458FF"/>
<path d="M10 9V31H21" stroke="#D458FF"/>
<path d="M9.44871 4.0592C9.16703 4.67227 9.332 5.6105 8.56226 5.6105" stroke="#D458FF" stroke-linecap="round"/>
<path d="M8.34083 5.49963C8.10816 5.73231 7.87579 6.06094 7.56519 6.16447" stroke="#D458FF" stroke-linecap="round"/>
<path d="M8.22998 5.27803C8.49763 5.04012 8.83389 5.06748 9.00563 4.724" stroke="#D458FF" stroke-linecap="round"/>
<path d="M9.00559 4.72402C8.63297 5.03932 7.30989 5.6856 7.75593 5.48736C8.08096 5.3429 8.33586 5.10128 8.58698 4.85945C8.82846 4.62692 9.21069 4.58467 9.36263 4.28079C9.55298 3.9001 8.69941 4.8152 8.35306 5.0626C8.17299 5.19122 7.67803 5.58521 7.5651 5.78284C7.32639 6.20058 6.66503 6.19175 6.45703 6.60774" stroke="#D458FF" stroke-linecap="round"/>
<path d="M10.0028 3.94836C9.45542 4.27033 9.23361 5.03601 8.68539 5.43194C8.33575 5.68446 8.09218 6.08056 7.78662 6.38611" stroke="#D458FF" stroke-linecap="round"/>
<path d="M7.78666 6.27527C7.29461 6.32 6.87747 6.69418 6.45698 6.91549C6.11425 7.09587 6.17655 7.29405 6.03837 7.60495C5.89895 7.91865 5.34891 8.44139 5.34891 8.76842C5.34891 9.07174 4.85816 9.4761 4.67791 9.71644C4.44194 10.0311 4.40115 10.5965 4.15466 10.843C3.97152 11.0261 3.83051 11.2035 3.79761 11.4832C3.77037 11.7147 3.42268 11.8813 3.36054 12.0988C3.22631 12.5686 2.98433 12.8806 2.74495 13.3115C2.50145 13.7498 2.73317 14.4204 2.44331 14.7828C2.16222 15.1341 2.0247 15.6315 2.0247 16.0817C2.0247 16.5938 1.69228 17.148 1.69228 17.6884C1.69228 18.1939 1.47067 18.527 1.47067 19.0181C1.47067 19.5584 1.35986 19.9772 1.35986 20.5139C1.35986 21.5907 1.47067 22.6337 1.47067 23.7273C1.47067 24.8695 1.69228 25.8736 1.69228 26.9961C1.69228 27.5088 1.80801 28.2095 1.92005 28.7136C1.96244 28.9044 2.06982 29.2947 2.19091 29.44C2.33836 29.617 2.46793 30.3805 2.46793 29.7663" stroke="#D458FF" stroke-linecap="round"/>
<path d="M47.5664 4.724C48.2178 5.03056 48.6174 5.49831 49.1731 5.94287C49.7603 6.41262 49.9708 7.17968 50.4474 7.71578C50.6632 7.95862 50.655 8.2661 50.7798 8.54683C50.9506 8.93112 51.1854 9.24059 51.3338 9.64875C51.5455 10.2308 51.5976 10.8056 51.9125 11.3724C52.6007 12.6112 53.0102 13.8503 53.4145 15.1645C53.6035 15.7785 53.9932 16.6633 53.9932 17.3006C53.9932 17.9534 54.3256 18.631 54.3256 19.2889C54.3256 20.5576 54.4364 21.8798 54.4364 23.1733C54.4364 24.4856 54.4237 26.0121 53.827 27.2055C53.7034 27.4527 53.3307 27.8049 53.4638 28.1042C53.6232 28.4628 53.55 28.9075 53.55 29.2985C53.55 30.002 52.7743 30.5159 52.7743 31.1514C52.7743 31.8144 52.4947 32.2709 52.1957 32.8689C51.9907 33.2789 51.5555 34.6713 51.5555 33.5338" stroke="#D458FF" stroke-linecap="round"/>
<path d="M52.885 30.3205C53.3695 29.4053 53.6682 28.471 54.1285 27.5503C54.6806 26.4461 53.7715 25.7445 53.7715 24.6693" stroke="#D458FF" stroke-linecap="round"/>
</svg>
