<svg width="515" height="622" viewBox="0 0 515 622" fill="none" xmlns="http://www.w3.org/2000/svg">
<ellipse cx="404" cy="211" rx="391" ry="411" fill="#53CDF3"/>
<g clip-path="url(#clip0_13_19)">
<path d="M475.395 309.904H60.2197C54.6548 309.904 50.1273 305.097 50.1273 299.188V148.715C50.1273 142.807 54.6548 138 60.2197 138H475.395C480.96 138 485.488 142.807 485.488 148.715V299.188C485.488 305.097 480.96 309.904 475.395 309.904ZM60.2197 139.277C55.3184 139.277 51.3306 143.511 51.3306 148.715V299.188C51.3306 304.392 55.3184 308.626 60.2197 308.626H475.395C480.297 308.626 484.284 304.392 484.284 299.188V148.715C484.284 143.511 480.297 139.277 475.395 139.277H60.2197V139.277Z" fill="#3F3D56"/>
<path d="M515 489.663H3V490.738H515V489.663Z" fill="#E6E6E6"/>
<path d="M515 434.731H3V435.806H515V434.731Z" fill="#E6E6E6"/>
<path d="M236.333 315.437C236.7 320.343 239.382 324.118 242.323 323.869C245.263 323.62 247.348 319.442 246.98 314.535C246.858 312.572 246.295 310.669 245.339 308.985L243.534 288.221L234.374 289.328L237.126 309.68C236.432 311.505 236.16 313.479 236.333 315.437Z" fill="#FFB6B6"/>
<path d="M225.391 218.566C225.391 218.566 233.953 213.754 238.295 220.945C242.636 228.137 245.633 305.911 245.633 305.911L233.599 307.275L231.318 252.47L225.391 218.566V218.566Z" fill="#E6E6E6"/>
<path d="M207.62 430.674L214.591 430.673L217.907 402.125L207.618 402.125L207.62 430.674Z" fill="#FFB6B6"/>
<path d="M231.504 430.506C231.721 430.894 231.835 432.147 231.835 432.598C231.835 433.985 230.776 435.11 229.469 435.11H207.88C206.989 435.11 206.266 434.343 206.266 433.396V432.442C206.266 432.442 205.198 429.574 207.397 426.039C207.397 426.039 210.13 428.807 214.213 424.471L215.418 422.155L224.134 428.924L228.966 429.555C230.023 429.693 230.96 429.534 231.504 430.506H231.504H231.504Z" fill="#2F2E41"/>
<path d="M247.961 429.448L254.715 427.616L251.273 399.084L241.305 401.789L247.961 429.448Z" fill="#FFB6B6"/>
<path d="M271.063 423.01C271.364 423.329 271.767 424.512 271.872 424.949C272.195 426.294 271.431 427.662 270.165 428.005L249.248 433.678C248.384 433.912 247.505 433.359 247.284 432.442L247.062 431.517C247.062 431.517 245.359 429.019 246.665 425.016C246.665 425.016 249.958 426.98 252.904 421.706L253.531 419.146L263.554 423.413L268.382 422.755C269.439 422.611 270.309 422.21 271.063 423.01H271.063V423.01Z" fill="#2F2E41"/>
<path d="M201.852 212.429L201.522 209.883L205.45 199.696L216.244 198.423L218.575 213.006L201.852 212.429Z" fill="#FFB6B6"/>
<path opacity="0.1" d="M201.852 212.429L201.522 209.883L205.45 199.696L216.244 198.423L218.575 213.006L201.852 212.429Z" fill="black"/>
<path d="M189.259 284.372L184.462 298.379L188.06 306.019L206.05 416.798H218.01L215.645 318.752L243.229 416.798H255.067L245.547 350.585L238.432 289.466L234.116 286.635L213.246 274.186L189.259 284.372Z" fill="#2F2E41"/>
<path d="M219.842 293.922L212.646 295.196L203.052 271.002H224.639L219.842 293.922Z" fill="#E6E6E6"/>
<path d="M234.234 287.556L219.842 293.922L215.045 282.462L212.646 295.196L187.46 286.588L191.058 271.002L187.46 220.069L200.161 211.08L201.852 209.883L217.444 211.156L218.811 211.945L228.237 217.523L230.636 259.542L234.234 287.556Z" fill="#2F2E41"/>
<path d="M218.811 211.945L212.047 242.353L200.161 211.08L201.852 209.883L217.444 211.156L218.811 211.945Z" fill="#E6E6E6"/>
<path d="M207.249 209.883L204.851 214.269L207.249 215.731L206.05 242.432L210.847 249.356L215.645 239.122L212.047 215.731L213.246 209.883H207.249Z" fill="#2F2E41"/>
<path d="M210.847 207.336C217.14 207.336 222.241 201.92 222.241 195.239C222.241 188.559 217.14 183.143 210.847 183.143C204.555 183.143 199.454 188.559 199.454 195.239C199.454 201.92 204.555 207.336 210.847 207.336Z" fill="#FFB6B6"/>
<path d="M203.566 196.301L206.028 197.441L207.102 190.597C207.102 190.597 211.4 188.316 214.623 189.456C217.846 190.597 223.218 189.456 223.218 189.456C223.218 189.456 223.218 178.05 215.697 178.05C208.176 178.05 200.656 179.19 200.656 182.612C200.656 186.034 197.432 189.456 197.432 189.456C197.432 189.456 193.135 196.301 197.432 200.863C201.73 205.426 203.879 205.426 203.879 205.426L203.566 196.301Z" fill="#2F2E41"/>
<path d="M181.458 315.079C181.333 319.999 183.623 324.054 186.571 324.138C189.52 324.222 192.011 320.303 192.135 315.382C192.21 313.417 191.841 311.461 191.058 309.679L191.34 288.829L182.121 288.897L182.823 309.444C181.95 311.18 181.483 313.112 181.458 315.079V315.079Z" fill="#FFB6B6"/>
<path d="M192.863 217.499C192.863 217.499 185.067 214.952 181.47 222.592C177.872 230.232 182.669 307.905 182.669 307.905H194.771L191.559 253.152L192.863 217.499V217.499Z" fill="#E6E6E6"/>
<path d="M491.912 362.203L462.84 352.755C462.197 352.546 461.523 352.469 460.853 352.53L313.514 365.843C311.414 366.033 310.886 369.041 312.781 370.021L317.501 372.463H317.375V489.321H321.822V374.698L336.613 382.348C337.745 382.934 339.008 383.173 340.26 383.038L341.834 382.87V489.321H346.281V382.393L460.24 370.171V489.321H464.687V369.694L483.588 367.668V489.321H488.035V367.191L491.483 366.821C493.904 366.561 494.238 362.959 491.912 362.203H491.912Z" fill="#3F3D56"/>
<path d="M356.288 365.38C359.067 365.38 400.203 360.068 400.203 360.068L406.318 368.921L363.514 377.774L356.288 365.38V365.38Z" fill="white"/>
<path d="M401.435 484.783L394.288 484.769L390.936 455.495L401.484 455.515L401.435 484.783Z" fill="#A0616A"/>
<path d="M376.949 484.566C376.726 484.964 376.607 486.248 376.606 486.71C376.604 488.133 377.688 489.288 379.028 489.29L401.161 489.33C402.074 489.332 402.817 488.547 402.818 487.577L402.82 486.598C402.82 486.598 403.919 483.66 401.671 480.032C401.671 480.032 398.865 482.864 394.686 478.412L393.455 476.035L384.507 482.958L379.553 483.596C378.469 483.736 377.509 483.57 376.949 484.566H376.949L376.949 484.566Z" fill="#2F2E41"/>
<path d="M439.793 471.17L434.154 475.685L415.066 454.743L423.388 448.078L439.793 471.17Z" fill="#A0616A"/>
<path d="M420.379 486.506C420.426 486.961 421.054 488.048 421.313 488.413C422.11 489.536 423.613 489.759 424.67 488.913L442.132 474.927C442.853 474.35 442.997 473.261 442.453 472.495L441.904 471.723C441.904 471.723 441.12 468.712 437.31 467.277C437.31 467.277 436.69 471.286 430.896 470.425L428.591 469.332L425.43 480.453L421.885 484.093C421.11 484.89 420.26 485.368 420.379 486.506L420.379 486.506V486.506Z" fill="#2F2E41"/>
<path d="M424.857 319.875C424.857 326.872 419.514 332.545 412.923 332.545C406.333 332.545 400.99 326.872 400.99 319.875C400.99 312.878 406.333 307.205 412.923 307.205C419.514 307.205 424.857 312.878 424.857 319.875Z" fill="#A0616A"/>
<path d="M423.732 392.925C423.732 392.925 379.795 390.285 377.308 395.566C374.821 400.847 390.753 473.386 390.753 473.386L404.967 470.223L398.033 419.33C398.033 419.33 434.698 429.64 439.672 417.317C444.646 404.995 443.214 400.407 443.214 400.407L423.732 392.925V392.925Z" fill="#2F2E41"/>
<path d="M434.99 384.061C434.99 384.061 391.959 393.855 390.877 399.646C389.794 405.437 423.233 470.918 423.233 470.918L436.153 463.875L416.785 416.743C416.785 416.743 454.712 416.388 456.439 403.107C458.166 389.827 455.641 385.804 455.641 385.804L434.99 384.061V384.061Z" fill="#2F2E41"/>
<path d="M439.898 334.395H419.225L405.08 359.039C405.08 359.039 401.764 374.965 405.08 376.684C408.396 378.403 408.396 396.886 408.396 396.886L443.214 400.407C443.214 400.407 448.188 344.957 446.53 339.676C444.872 334.395 439.898 334.395 439.898 334.395V334.395Z" fill="#6C63FF"/>
<path d="M407.152 350.678L405.08 376.684L381.768 366.18L376.205 363.21C375.115 361.701 373.701 360.491 372.081 359.682C368.051 357.597 363.774 358.113 362.524 360.835C361.275 363.556 363.528 367.452 367.556 369.536C369.155 370.392 370.924 370.829 372.715 370.811L388.994 380.627L389.013 380.589L389.085 380.725L414.613 392.045L420.487 357.905L407.152 350.678H407.152Z" fill="#A0616A"/>
<path d="M404.665 321.633C404.665 321.633 392.23 323.393 397.204 311.951C397.204 311.951 396.446 305.748 400.141 305.329C403.836 304.91 408.81 297.868 408.81 297.868C408.81 297.868 420.214 291.707 426.118 297.868C432.023 304.03 449.432 340.116 449.432 340.116L437.826 353.318C437.826 353.318 430.848 333.844 422.731 336.1C414.613 338.356 407.152 345.082 407.152 345.082C407.152 345.082 398.914 340.705 402.619 336.89C406.323 333.075 404.665 321.633 404.665 321.633Z" fill="#2F2E41"/>
<path d="M421.245 340.996C421.245 340.996 415.442 333.075 411.297 339.236C407.152 345.397 403.836 353.318 403.836 353.318L420.416 359.48L421.245 340.996H421.245Z" fill="#6C63FF"/>
<path d="M484.198 487.569L464.935 422.565L464.938 422.564H464.982L464.904 422.458L464.903 422.456L463.53 417.826L463.531 417.825C465.621 415.913 467.044 413.18 467.328 410.034L458.523 358.617C459.128 351.865 454.253 345.963 447.866 345.721L427.998 345.668C422.35 345.455 417.458 349.787 416.636 355.725L416.197 358.876L410.109 402.84C409.887 404.422 409.976 405.98 410.326 407.438L405.946 408.046L404.617 408.234L399.364 408.96L399.347 408.966L398.691 409.055H397.98V427.941H398.024V488.306C398.024 488.696 398.324 489.014 398.691 489.014C399.064 489.014 399.364 488.696 399.364 488.306V427.941H407.158L414.935 488.235C414.985 488.589 415.268 488.849 415.602 488.849C415.63 488.849 415.663 488.849 415.691 488.843C416.058 488.79 416.313 488.43 416.263 488.041L408.514 427.941H445.909C449.622 427.941 453.063 426.69 455.864 424.548L470.691 488.125C470.768 488.446 471.041 488.66 471.34 488.66C471.394 488.66 471.45 488.653 471.505 488.638C471.864 488.542 472.08 488.155 471.989 487.774L457.019 423.583C457.218 423.406 457.417 423.218 457.605 423.025L463.557 422.653L482.921 487.996C483.011 488.3 483.275 488.494 483.559 488.494C483.626 488.494 483.693 488.483 483.76 488.461C484.113 488.343 484.309 487.944 484.198 487.569V487.569ZM462.258 418.834C462.308 418.805 462.353 418.769 462.397 418.74L462.397 418.74L462.541 419.222L462.258 418.834V418.834Z" fill="#E6E6E6"/>
<path d="M106.217 377.384L119.182 368.631L124.452 372.006L106.217 394.252V377.384Z" fill="#FFB6B6"/>
<path d="M88.4888 343.504C88.4888 343.504 79.8778 345.655 83.93 358.024C87.9822 370.393 101.152 396.206 105.204 394.593C109.256 392.979 109.763 376.846 109.763 376.846C109.763 376.846 109.256 377.384 107.23 375.233C105.204 373.082 105.204 374.064 105.204 371.691C105.204 369.317 103.547 367.558 103.547 367.558L101.659 363.401C101.659 363.401 101.659 344.041 94.0606 342.966C86.4627 341.89 88.4888 343.504 88.4888 343.504L88.4888 343.504Z" fill="#E6E6E6"/>
<path d="M128.72 371.428C132.082 367.857 133.125 363.175 131.048 360.97C128.971 358.765 124.561 359.872 121.198 363.442C117.835 367.012 116.793 371.694 118.87 373.899C120.947 376.105 125.357 374.998 128.72 371.428Z" fill="#FFB6B6"/>
<path d="M54.9488 414.76L63.7951 430.305L115.348 427.067L101.621 408.283L54.9488 414.76Z" fill="#E6E6E6"/>
<path d="M70.3528 487.468C70.0525 487.468 69.791 487.232 69.7491 486.908L54.3444 367.459C54.2986 367.104 54.5322 366.778 54.866 366.729C55.1996 366.678 55.5074 366.928 55.5532 367.283L70.958 486.732C71.0037 487.087 70.7701 487.413 70.4364 487.462C70.4082 487.466 70.3803 487.468 70.3528 487.468Z" fill="#E6E6E6"/>
<path d="M54.9488 487.619C54.6119 487.619 54.3387 487.329 54.3387 486.972V367.394C54.3387 367.036 54.6119 366.746 54.9488 366.746C55.2857 366.746 55.5589 367.036 55.5589 367.394V486.972C55.5589 487.329 55.2857 487.619 54.9488 487.619Z" fill="#E6E6E6"/>
<path d="M132.277 487.144C132.018 487.144 131.777 486.967 131.696 486.691L95.2428 363.679C95.1417 363.338 95.3203 362.974 95.6417 362.867C95.963 362.76 96.3057 362.949 96.4067 363.29L132.859 486.302C132.961 486.643 132.782 487.007 132.461 487.114C132.4 487.134 132.338 487.144 132.277 487.144V487.144Z" fill="#E6E6E6"/>
<path d="M121.143 487.295C120.871 487.295 120.622 487.101 120.552 486.808L95.2334 378.241C95.1505 377.895 95.3478 377.542 95.6743 377.454C96.0018 377.366 96.3329 377.575 96.4161 377.922L121.735 486.488C121.818 486.835 121.62 487.187 121.294 487.276C121.243 487.289 121.193 487.295 121.143 487.295H121.143Z" fill="#E6E6E6"/>
<path d="M54.9488 369.299L97.1974 368.609L104.976 415.732H55.5589L54.9488 369.299Z" fill="#E6E6E6"/>
<path d="M119.874 438.589L109.227 458.491L121.59 461.381L126.744 447.226L119.874 438.589Z" fill="#FFB6B6"/>
<path d="M113.051 454.734C113.051 454.734 112.638 451.488 110.205 452.518C107.773 453.548 100.753 457.376 100.753 457.376C100.753 457.376 119.063 488.962 122.537 487.491C126.012 486.019 121.852 477.091 121.852 477.091L122.771 461.308L113.051 454.734H113.051Z" fill="#2F2E41"/>
<path d="M72.7863 399.971C72.7863 399.971 68.9874 418.524 80.6375 424.977C92.2877 431.431 132.05 415.566 132.05 415.566L113.815 444.575L126.478 449.984C126.478 449.984 155.351 409.651 153.324 403.197C151.298 396.744 137.622 396.206 137.622 396.206L106.724 397.82L98.6193 395.131L72.7863 399.971H72.7863Z" fill="#2F2E41"/>
<path d="M104.123 447.422L87.3839 461.846L97.9085 469.314L107.561 458.12L104.123 447.422Z" fill="#FFB6B6"/>
<path d="M92.2338 459.824C92.2338 459.824 92.9608 456.641 90.3422 456.661C87.7236 456.68 79.8731 457.534 79.8731 457.534C79.8731 457.534 86.1016 494.028 89.8425 494C93.5833 493.972 92.7691 484.048 92.7691 484.048L99.0334 469.703L92.2338 459.824V459.824Z" fill="#2F2E41"/>
<path d="M73.4986 393.259C73.4986 393.259 63.6011 409.073 72.2408 419.585C80.8804 430.097 123.354 430.682 123.354 430.682L96.4272 450.656L106.368 460.587C106.368 460.587 147.085 434.173 147.409 427.379C147.734 420.586 135.18 414.801 135.18 414.801L105.847 404.367L99.2194 398.731L73.4985 393.259H73.4986Z" fill="#2F2E41"/>
<path d="M98.9245 356.631C98.9245 356.631 89.3004 352.866 84.7416 352.866C84.306 352.866 83.8755 352.92 83.4449 353.017C80.5273 353.673 77.8427 356.335 76.5562 357.787C76.0547 358.357 75.766 358.739 75.766 358.739C75.766 358.739 75.7964 358.368 75.8571 357.717C76.156 354.297 77.2602 343.073 79.2407 335.889C79.9499 333.323 80.7654 331.275 81.7025 330.28C83.8856 327.956 84.8936 325.171 85.3596 323.095C85.7547 321.315 85.7547 320.062 85.7547 320.062L82.0621 318.373L81.3783 313.63C81.2567 314.189 80.6945 315.281 78.8051 317.373C78.643 317.55 78.4657 317.701 78.2783 317.83C75.5532 319.648 69.9966 316.486 67.003 314.496C68.2491 309.898 70.5082 305.692 74.6111 305.004C84.2351 303.391 84.2351 297.475 90.3135 303.928C90.8149 304.461 91.3214 304.972 91.828 305.466C93.7731 309.414 94.4822 314.705 94.7355 318.384C94.9178 320.96 94.8722 322.751 94.8722 322.751C94.8722 322.751 97.4049 338.884 101.457 342.111C105.509 345.338 98.9245 356.631 98.9245 356.631V356.631Z" fill="#2F2E41"/>
<path d="M80.1829 330.817L73.3387 341.476L88.7939 345.875V330.817H80.1829Z" fill="#FFB6B6"/>
<path opacity="0.1" d="M80.1829 330.817L73.3387 341.476L88.7939 345.875V330.817H80.1829Z" fill="black"/>
<path d="M89.7551 341.084L75.0657 334.63C75.0657 334.63 55.3111 343.773 56.8307 361.519C58.3503 379.266 72.5331 409.92 72.5331 409.92L100.899 397.013L97.8595 362.595L89.7551 341.084V341.084Z" fill="#E6E6E6"/>
<path d="M83.4569 335.576C90.6142 335.576 96.4164 329.416 96.4164 321.817C96.4164 314.218 90.6142 308.058 83.4569 308.058C76.2995 308.058 70.4973 314.218 70.4973 321.817C70.4973 329.416 76.2995 335.576 83.4569 335.576Z" fill="#FFB6B6"/>
<path d="M100.951 316.835C98.4179 319.524 96.3918 322.213 96.3918 322.213L95.3787 317.911C95.3787 317.911 95.1457 318.093 94.7354 318.384C93.1298 319.545 88.8192 322.466 85.3596 323.095C83.8198 323.374 82.4521 323.197 81.5606 322.213C79.6713 320.121 79.109 319.029 78.9875 318.47L78.3036 323.213L74.6111 324.902C74.6111 324.902 74.6111 330.807 78.6633 335.12C78.8608 335.329 79.0533 335.588 79.2407 335.889C81.1757 338.986 82.5636 346.569 83.4449 353.017C84.225 358.75 84.5998 363.579 84.5998 363.579C84.5998 363.579 80.7654 358.481 76.5561 357.787C76.3231 357.749 76.0901 357.723 75.8571 357.717C75.7811 357.706 75.7001 357.706 75.6241 357.706C71.0654 357.706 61.4413 361.471 61.4413 361.471C61.4413 361.471 54.8564 350.178 58.9087 346.951C62.9609 343.724 65.4935 327.591 65.4935 327.591C65.4935 327.591 65.3264 320.686 67.003 314.496C68.2491 309.898 70.5082 305.692 74.6111 305.004C84.2351 303.391 84.2351 297.475 90.3135 303.928C90.8149 304.461 91.3215 304.972 91.828 305.466C97.491 310.995 103.276 314.367 100.951 316.835V316.835Z" fill="#2F2E41"/>
<path d="M44.1111 389.025H39.2982V489.946H44.1111V389.025Z" fill="#3F3D56"/>
<path d="M160.826 389.025H156.013V489.946H160.826V389.025Z" fill="#3F3D56"/>
<path d="M130.143 346.229H98.257V380.083H130.143V346.229Z" fill="#6C63FF"/>
<path d="M79.8778 382.224L92.8421 373.471L98.1128 376.846L79.8778 399.092V382.224Z" fill="#FFB6B6"/>
<path d="M62.1493 348.344C62.1493 348.344 53.5383 350.495 57.5905 362.864C61.6427 375.233 74.8125 401.046 78.8647 399.433C82.9169 397.82 83.4235 381.686 83.4235 381.686C83.4235 381.686 82.9169 382.224 80.8908 380.073C78.8647 377.922 78.8647 378.904 78.8647 376.531C78.8647 374.157 77.2075 372.398 77.2075 372.398L75.319 368.242C75.319 368.242 75.319 348.881 67.7211 347.806C60.1231 346.73 62.1493 348.344 62.1493 348.344H62.1493Z" fill="#E6E6E6"/>
<path d="M102.38 376.268C105.743 372.697 106.785 368.016 104.708 365.81C102.631 363.605 98.2213 364.712 94.8585 368.282C91.4957 371.852 90.4534 376.534 92.5304 378.74C94.6075 380.945 99.0173 379.838 102.38 376.268Z" fill="#FFB6B6"/>
<path d="M170.452 385.193H24.8592V396.69H170.452V385.193Z" fill="#3F3D56"/>
<path d="M318.372 293.214H296.87C295.166 293.214 293.784 294.681 293.784 296.491V305.906C293.784 307.715 295.166 309.182 296.87 309.182H318.372C320.077 309.182 321.458 307.715 321.458 305.906V296.491C321.458 294.681 320.077 293.214 318.372 293.214Z" fill="#3F3D56"/>
<path d="M363.494 302.629H341.992C340.287 302.629 338.905 304.096 338.905 305.906V305.906C338.905 307.715 340.287 309.182 341.992 309.182H363.494C365.198 309.182 366.58 307.715 366.58 305.906V305.906C366.58 304.096 365.198 302.629 363.494 302.629Z" fill="#6C63FF"/>
</g>
<path d="M209.5 0C209.5 55.2285 159.356 100 97.5 100C29 100 0 55.2285 0 0C0 -55.2285 35.6441 -100 97.5 -100C159.356 -100 209.5 -55.2285 209.5 0Z" fill="#94F2FF"/>
<defs>
<clipPath id="clip0_13_19">
<rect width="512" height="356" fill="white" transform="translate(3 138)"/>
</clipPath>
</defs>
</svg>
