<svg width="28" height="30" viewBox="0 0 28 30" fill="none" xmlns="http://www.w3.org/2000/svg">
<path d="M14 8.5714C10.5906 8.5714 7.82352 11.4514 7.82352 15C7.82352 18.5485 10.5906 21.4285 14 21.4285C17.4094 21.4285 20.1765 18.5485 20.1765 15C20.1765 11.4514 17.4094 8.5714 14 8.5714ZM1.64705 16.2857H4.11764C4.79705 16.2857 5.35293 15.7071 5.35293 15C5.35293 14.2928 4.79705 13.7143 4.11764 13.7143H1.64705C0.967641 13.7143 0.411758 14.2928 0.411758 15C0.411758 15.7071 0.967641 16.2857 1.64705 16.2857ZM23.8823 16.2857H26.3529C27.0323 16.2857 27.5882 15.7071 27.5882 15C27.5882 14.2928 27.0323 13.7143 26.3529 13.7143H23.8823C23.2029 13.7143 22.6471 14.2928 22.6471 15C22.6471 15.7071 23.2029 16.2857 23.8823 16.2857ZM12.7647 2.14283V4.71426C12.7647 5.4214 13.3206 5.99997 14 5.99997C14.6794 5.99997 15.2353 5.4214 15.2353 4.71426V2.14283C15.2353 1.43569 14.6794 0.857117 14 0.857117C13.3206 0.857117 12.7647 1.43569 12.7647 2.14283ZM12.7647 25.2857V27.8571C12.7647 28.5643 13.3206 29.1428 14 29.1428C14.6794 29.1428 15.2353 28.5643 15.2353 27.8571V25.2857C15.2353 24.5785 14.6794 24 14 24C13.3206 24 12.7647 24.5785 12.7647 25.2857ZM6.57588 5.45997C6.09411 4.95855 5.30352 4.95855 4.83411 5.45997C4.35235 5.9614 4.35235 6.78426 4.83411 7.27283L6.14352 8.63569C6.62529 9.13712 7.41588 9.13712 7.88529 8.63569C8.3547 8.13426 8.36705 7.3114 7.88529 6.82283L6.57588 5.45997ZM21.8565 21.3643C21.3747 20.8628 20.5841 20.8628 20.1147 21.3643C19.6329 21.8657 19.6329 22.6885 20.1147 23.1771L21.4241 24.54C21.9059 25.0414 22.6965 25.0414 23.1659 24.54C23.6476 24.0385 23.6476 23.2157 23.1659 22.7271L21.8565 21.3643ZM23.1659 7.27283C23.6476 6.7714 23.6476 5.94855 23.1659 5.45997C22.6841 4.95855 21.8935 4.95855 21.4241 5.45997L20.1147 6.82283C19.6329 7.32426 19.6329 8.14712 20.1147 8.63569C20.5965 9.12426 21.3871 9.13712 21.8565 8.63569L23.1659 7.27283ZM7.88529 23.1771C8.36705 22.6757 8.36705 21.8528 7.88529 21.3643C7.40352 20.8628 6.61293 20.8628 6.14352 21.3643L4.83411 22.7271C4.35235 23.2285 4.35235 24.0514 4.83411 24.54C5.31588 25.0285 6.10646 25.0414 6.57588 24.54L7.88529 23.1771Z" fill="white"/>
</svg>
