<svg width="71" height="66" viewBox="0 0 71 66" fill="none" xmlns="http://www.w3.org/2000/svg">
<g clip-path="url(#clip0_8_1506)">
<path d="M50.6062 47.025H32.8562V24.6942L48.2039 32.51L50.6062 47.025Z" fill="#2F2E41"/>
<path d="M36.1353 43.0837C42.4998 43.0837 47.6593 38.2876 47.6593 32.3713C47.6593 26.4549 42.4998 21.6588 36.1353 21.6588C29.7707 21.6588 24.6113 26.4549 24.6113 32.3713C24.6113 38.2876 29.7707 43.0837 36.1353 43.0837Z" fill="#FFB6B6"/>
<path d="M29.5197 44.6679L28.9991 39.7757L39.3957 37.9686L45.5347 51.8634L34.8581 63.2769L27.2509 49.3822L29.5197 44.6679Z" fill="#FFB6B6"/>
<path d="M60.9959 55.9623C60.8665 56.0876 60.7344 56.2117 60.6022 56.3345C60.1832 56.724 59.7561 57.1024 59.3197 57.4696C52.7802 62.9829 44.3897 66 35.5 66C27.3043 66 19.533 63.4357 13.2458 58.7152C13.2418 58.7127 13.2391 58.7102 13.2351 58.7065C13.0442 58.5638 12.8561 58.4187 12.6679 58.2711C12.7013 58.1817 12.7373 58.0937 12.7733 58.0068C14.7952 53.1102 18.7883 50.7146 21.2119 49.6662C22.413 49.1464 23.2285 48.9566 23.2285 48.9566L26.0738 44.1927L28.077 47.6664L29.5531 50.227L35.6094 60.7312L40.8343 48.6378L42.4532 44.8887L42.8683 43.9285L44.8421 45.3564L46.7105 46.7074L50.4727 47.4791L53.5249 48.1056L57.6702 48.9566C59.3464 50.2258 60.366 52.64 60.9359 55.6397C60.9572 55.7464 60.9773 55.8544 60.9959 55.9623Z" fill="#53CDF3"/>
<path d="M30.0735 20.1974C31.4772 18.0055 34.0554 16.5016 36.7891 16.28C39.5229 16.0583 42.3422 17.1246 44.1329 19.0575C45.2001 20.2093 45.8998 21.6199 46.9399 22.7928C49.1783 25.3169 52.9952 26.7927 53.9731 29.935C54.3998 31.3063 54.1872 32.7702 53.9713 34.1835C53.7862 35.3948 53.6011 36.6061 53.4161 37.8175C53.2721 38.7602 53.134 39.754 53.5142 40.6381C53.9604 41.6753 55.028 42.3547 55.7182 43.2691C56.8928 44.825 56.8069 47.103 55.5181 48.5786C54.9592 49.2186 54.2182 49.7012 53.6322 50.3199C53.0462 50.9386 52.6115 51.7845 52.857 52.5767C53.3271 54.0941 55.8871 54.458 56.1679 56.0153C56.3114 56.8116 55.7198 57.6067 54.9446 57.9708C54.1694 58.3349 53.2569 58.3455 52.3948 58.2481C49.1179 57.8779 46.0839 55.9745 44.4885 53.2882C42.893 50.6019 42.7769 47.2011 44.1857 44.4261C45.3429 42.147 47.4935 40.133 47.4701 37.6128C47.4573 36.2399 46.7799 34.9575 46.1175 33.7304C44.7616 31.2187 43.4058 28.707 42.0499 26.1953C41.3237 24.8499 40.4808 23.4 38.9856 22.822C37.83 22.3753 36.5188 22.5486 35.2828 22.7313C34.0469 22.914 32.7376 23.0918 31.5786 22.6529C30.4195 22.214 29.5438 20.9099 30.096 19.8659" fill="#2F2E41"/>
<path d="M32.093 20.3118C29.8665 19.6306 27.3689 20.7242 25.8616 22.3929C24.3543 24.0615 23.6231 26.2023 22.9266 28.2827C22.5276 29.4744 22.1287 30.6661 21.7297 31.8579C21.3544 32.9789 20.979 34.0999 20.6037 35.221C20.1623 36.5396 19.7172 37.9404 20.0795 39.2797C20.3414 40.2479 21.0154 41.1271 21.0299 42.1254C21.045 43.1682 20.3425 44.0837 19.7269 44.9555C19.1112 45.8274 18.5333 46.8632 18.8266 47.8699C19.2728 49.401 21.5628 50.2426 21.4372 51.8246C21.3953 52.3525 21.0669 52.8409 21.0729 53.3703C21.0805 54.0438 21.6477 54.6258 22.3124 54.8941C22.977 55.1625 23.7246 55.177 24.4491 55.1652C26.6713 55.1289 28.8896 54.8836 31.059 54.4342C31.8936 54.2613 32.7424 54.0493 33.4372 53.5858C34.1319 53.1224 34.6502 52.3546 34.5598 51.5641C34.4189 50.3324 32.9942 49.6336 32.2753 48.5907C31.5691 47.5663 31.5855 46.2683 31.281 45.085C30.8625 43.4588 29.8289 42.039 29.053 40.5305C26.136 34.8589 27.1571 27.6298 31.5503 22.8505C31.9387 22.4279 32.3631 22.0028 32.5252 21.4678C32.6872 20.9328 32.4783 20.2511 31.9153 20.064" fill="#2F2E41"/>
<path d="M60.6022 9.66552C53.8973 3.43274 44.9822 0 35.5 0C26.0178 0 17.1027 3.43274 10.3978 9.66552C3.6928 15.8983 0 24.1855 0 33C0 41.0453 3.07622 48.6514 8.71351 54.6572C9.25135 55.2316 9.81322 55.7911 10.3978 56.3345C10.5352 56.4623 10.674 56.59 10.8142 56.7141C11.1878 57.0503 11.5682 57.3791 11.9552 57.6979C12.1901 57.8927 12.4277 58.0837 12.6679 58.271C12.8561 58.4187 13.0442 58.5638 13.2351 58.7065C13.2391 58.7102 13.2418 58.7127 13.2458 58.7152C19.533 63.4357 27.3043 66 35.5 66C44.3897 66 52.7802 62.9829 59.3197 57.4696C59.7561 57.1024 60.1832 56.724 60.6022 56.3345C60.7344 56.2117 60.8665 56.0876 60.9959 55.9623C61.3563 55.6174 61.7059 55.2663 62.0476 54.9103C67.8357 48.866 71 41.1594 71 33C71 24.1855 67.3072 15.8983 60.6022 9.66552V9.66552ZM61.9608 54.6014C61.6272 54.9537 61.2855 55.301 60.9359 55.6397C60.3914 56.167 59.8295 56.6781 59.249 57.1706C59.0288 57.3592 58.8059 57.5428 58.5803 57.7252C56.3022 59.5675 53.7665 61.1406 51.0319 62.3936C50.0723 62.834 49.0888 63.2347 48.0825 63.5932C44.1735 64.9877 39.9308 65.7519 35.5 65.7519C31.224 65.7519 27.1241 65.0398 23.3299 63.7371C21.7724 63.2037 20.267 62.5697 18.8217 61.844C18.6095 61.7373 18.3986 61.6294 18.1891 61.5189C17.0867 60.9383 16.0204 60.3044 14.9967 59.6196C14.232 59.1097 13.49 58.5725 12.7733 58.0068C12.5224 57.8095 12.2742 57.6098 12.03 57.4051C11.6323 57.0763 11.2426 56.7377 10.8622 56.3903C10.1415 55.734 9.45288 55.0504 8.79493 54.3396C3.48194 48.603 0.266917 41.1445 0.266917 33C0.266917 14.9406 16.0724 0.24812 35.5 0.24812C54.9276 0.24812 70.7331 14.9406 70.7331 33C70.7331 41.2698 67.4193 48.8326 61.9608 54.6014Z" fill="#3F3D56"/>
</g>
<defs>
<clipPath id="clip0_8_1506">
<rect width="71" height="66" fill="white"/>
</clipPath>
</defs>
</svg>
