<svg width="71" height="66" viewBox="0 0 71 66" fill="none" xmlns="http://www.w3.org/2000/svg">
<g clip-path="url(#clip0_8_1518)">
<path d="M36.1352 43.084C42.4998 43.084 47.6593 38.2879 47.6593 32.3715C47.6593 26.4552 42.4998 21.6591 36.1352 21.6591C29.7707 21.6591 24.6112 26.4552 24.6112 32.3715C24.6112 38.2879 29.7707 43.084 36.1352 43.084Z" fill="#FFB6B6"/>
<path d="M29.5197 44.6681L28.9991 39.776L39.3956 37.9689L45.5347 51.8636L34.858 63.2771L27.2509 49.3824L29.5197 44.6681Z" fill="#FFB6B6"/>
<path d="M28.8321 42.2248L31.105 42.7022C31.105 42.7022 29.3182 37.4353 29.9247 36.9325C30.5312 36.4296 32.0173 37.2219 32.0173 37.2219L33.5791 38.8496L35.4814 37.0492C35.4814 37.0492 37.5467 34.662 38.3553 33.9916C39.1639 33.3211 37.8651 30.8325 37.8651 30.8325C37.8651 30.8325 49.8619 27.8254 45.3979 22.4163C45.3979 22.4163 42.7806 18.1754 41.9283 19.5569C41.076 20.9384 40.0597 18.7443 40.0597 18.7443L36.9562 19.2929C36.9562 19.2929 30.8313 15.9358 25.0179 23.1176C19.2046 30.2995 28.8321 42.2248 28.8321 42.2248H28.8321V42.2248Z" fill="#2F2E41"/>
<path d="M57.809 58.6742C51.511 63.4207 43.7197 66 35.5 66C27.9943 66 20.8449 63.8488 14.8646 59.8615C14.8753 59.7572 14.886 59.6543 14.8953 59.5513C15.0541 57.9385 15.1956 56.3704 15.289 55.0703C15.6507 50.0223 28.3199 46.6577 28.3199 46.6577C28.3199 46.6577 28.3773 46.7111 28.4921 46.8041C29.1914 47.3748 32.0301 49.4441 37.0081 50.0222C41.4469 50.5383 42.9083 48.0906 43.35 46.9183C43.4835 46.561 43.5235 46.3215 43.5235 46.3215L56.5544 52.0419C57.4046 53.1709 57.7369 55.6025 57.8023 58.3355C57.8049 58.4484 57.8076 58.5601 57.809 58.6742Z" fill="#53CDF3"/>
<path d="M60.6022 9.66553C53.8973 3.43274 44.9822 0 35.5 0C26.0178 0 17.1027 3.43274 10.3978 9.66553C3.69281 15.8983 0 24.1855 0 33C0 41.0453 3.07623 48.6514 8.71352 54.6572C9.25135 55.2316 9.81322 55.7911 10.3978 56.3345C10.5352 56.4623 10.674 56.59 10.8142 56.7141C11.1878 57.0503 11.5682 57.3791 11.9552 57.6979C12.1901 57.8927 12.4277 58.0837 12.6679 58.2711C12.8561 58.4187 13.0443 58.5638 13.2351 58.7065C13.2391 58.7102 13.2418 58.7127 13.2458 58.7152C13.7756 59.1122 14.3148 59.4943 14.8646 59.8615C20.8449 63.8488 27.9943 66 35.5 66C43.7197 66 51.511 63.4208 57.809 58.6743C58.3228 58.2872 58.8259 57.8852 59.3197 57.4696C59.7561 57.1024 60.1832 56.724 60.6022 56.3345C60.7344 56.2117 60.8665 56.0876 60.9959 55.9623C61.3563 55.6174 61.7059 55.2663 62.0476 54.9103C67.8357 48.8661 71 41.1594 71 33C71 24.1855 67.3072 15.8983 60.6022 9.66553V9.66553ZM61.9608 54.6014C61.6272 54.9537 61.2855 55.3011 60.9359 55.6397C60.3914 56.167 59.8295 56.6781 59.249 57.1706C59.0288 57.3592 58.8059 57.5428 58.5803 57.7252C58.3241 57.9324 58.0652 58.1358 57.8023 58.3356C55.7297 59.9173 53.4595 61.282 51.0319 62.3936C50.0723 62.834 49.0888 63.2347 48.0825 63.5932C44.1735 64.9877 39.9308 65.7519 35.5 65.7519C31.224 65.7519 27.1241 65.0398 23.3299 63.7371C21.7724 63.2037 20.267 62.5697 18.8217 61.844C18.6095 61.7373 18.3986 61.6294 18.1891 61.519C17.0867 60.9384 16.0204 60.3044 14.9968 59.6196C14.9634 59.5973 14.9287 59.5737 14.8953 59.5514C14.1666 59.0626 13.458 58.5477 12.7733 58.0068C12.5224 57.8095 12.2742 57.6098 12.03 57.4051C11.6323 57.0764 11.2426 56.7377 10.8622 56.3903C10.1415 55.734 9.45288 55.0505 8.79493 54.3396C3.48194 48.6031 0.266917 41.1446 0.266917 33C0.266917 14.9406 16.0724 0.24812 35.5 0.24812C54.9276 0.24812 70.7331 14.9406 70.7331 33C70.7331 41.2699 67.4193 48.8326 61.9608 54.6014Z" fill="#3F3D56"/>
</g>
<defs>
<clipPath id="clip0_8_1518">
<rect width="71" height="66" fill="white"/>
</clipPath>
</defs>
</svg>
